<?xml version="1.0" encoding="utf-8"?>
<!-- Generator: Adobe Illustrator 21.0.0, SVG Export Plug-In . SVG Version: 6.00 Build 0)  -->
<svg version="1.1" id="_x32_" xmlns="http://www.w3.org/2000/svg" xmlns:xlink="http://www.w3.org/1999/xlink" x="0px" y="0px"
	 viewBox="0 0 512 512" style="enable-background:new 0 0 512 512;" xml:space="preserve">
<style type="text/css">
	.st0{fill:#FFFFFF;}
</style>
<g>
	<path class="st0" d="M297,380.3c0-19.3,8.3-36.7,21.5-48.9c-12.6-4.9-26.2-12.2-26.2-21.6c0-6.5,0-14.6,0-25.8
		c4.8-13.2,11.9-14.2,15.5-34.4c8.4-3,13.1-7.8,19.1-28.6c4.5-15.7-2.1-20-6.4-21.1c0.1-0.8,0.2-1.7,0.3-2.7
		c1.6-23.5,15.3-93.4-32-101.7c-12.6-9.9-20.5-14.2-47.3-12.7c-17,0-29.9,3.7-47.9-1.4c-24,20.2-17.4,86.3-14,118.2
		c-4.2,1-11.5,4.8-6.9,21.2c5.9,20.8,10.7,25.6,19.1,28.6c3.6,20.3,14.5,26.8,15.3,34.4c0,11.1,0,19.2,0,25.8
		c0,9.8-16,18.1-27.9,22.3c-22.8,8-86.2,31.8-80.7,98.4h221.3C305.8,418.1,297,400.3,297,380.3z"/>
	<path class="st0" d="M363.8,330.3c-27.7,0-50.1,22.4-50.1,50.1s22.4,50.1,50.1,50.1s50.1-22.4,50.1-50.1
		C413.8,352.7,391.4,330.3,363.8,330.3z M391.6,387.3h-20.8v20.8h-13.9v-20.8H336v-13.9h20.8v-20.8h13.9v20.8h20.8v13.9H391.6z"/>
</g>
</svg>
