<?xml version="1.0" encoding="utf-8"?>
<!-- Generator: Adobe Illustrator 21.0.0, SVG Export Plug-In . SVG Version: 6.00 Build 0)  -->
<svg version="1.1" id="_x32_" xmlns="http://www.w3.org/2000/svg" xmlns:xlink="http://www.w3.org/1999/xlink" x="0px" y="0px"
	 viewBox="0 0 512 512" style="enable-background:new 0 0 512 512;" xml:space="preserve">
<style type="text/css">
	.st0{fill:#FFFFFF;}
</style>
<g>
	<path class="st0" d="M217.3,112c12.5,0,22.7-10.2,22.7-22.7V38.7c0-12.5-10.2-22.7-22.7-22.7H64v96H217.3z"/>
	<rect y="0" class="st0" width="32" height="512"/>
	<path class="st0" d="M297.3,496c12.5,0,22.7-10.2,22.7-22.7v-50.7c0-12.5-10.2-22.7-22.7-22.7H64v96L297.3,496L297.3,496z"/>
	<path class="st0" d="M393.3,368c12.5,0,22.7-10.2,22.7-22.7v-50.7c0-12.5-10.2-22.7-22.7-22.7H64v96h329.3V368z"/>
	<path class="st0" d="M489.3,240c12.5,0,22.7-10.2,22.7-22.7v-50.7c0-12.5-10.2-22.7-22.7-22.7H64v96h425.3V240z"/>
</g>
</svg>
